# xmcd
#
# Track frame offsets: 
#        150
#        17070
#        31562
#        55863
#        81950
#        101918
#        129494
#        150429
#        173977
#        193571
#        216970
#        237256
#        257626
#        278547
#        296815
#        316743
#
# Disc length: 4440 seconds
#
# Revision: 4
# Processed by: cddbd v1.5.2PL0 Copyright (c) Steve Scherf et al.
# Submitted via: ExactAudioCopy v1.3
#
DISCID=d6115610
DTITLE=Lucio Dalla - Caro Amico Ti Scrivo...
DYEAR=2002
DGENRE=Pop
TTITLE0=4-3-1943
TTITLE1=Piazza Grande
TTITLE2=Com'è Profondo Il Mare
TTITLE3=Disperato Erotico Stomp
TTITLE4=L'Anno Che Verrà
TTITLE5=Futura
TTITLE6=Washinton
TTITLE7=Caruso
TTITLE8=Attenti Al Lupo
TTITLE9=Apriti Cuore
TTITLE10=Canzone
TTITLE11=Tu Non Mi Basti Mai
TTITLE12=Ciao
TTITLE13=La
TTITLE14=Kamikaze
TTITLE15=Zingaro
EXTD=YEAR: 2002
EXTT0=
EXTT1=
EXTT2=
EXTT3=
EXTT4=
EXTT5=
EXTT6=
EXTT7=
EXTT8=
EXTT9=
EXTT10=
EXTT11=
EXTT12=
EXTT13=
EXTT14=
EXTT15=
PLAYORDER=
